<?xml version="1.0" standalone="no"?>
<!DOCTYPE svg PUBLIC "-//W3C//DTD SVG 20010904//EN"
 "http://www.w3.org/TR/2001/REC-SVG-20010904/DTD/svg10.dtd">
<svg version="1.0" xmlns="http://www.w3.org/2000/svg"
 width="585.000000pt" height="393.000000pt" viewBox="0 0 585.000000 393.000000"
 preserveAspectRatio="xMidYMid meet">

<g transform="translate(0.000000,393.000000) scale(0.100000,-0.100000)"
fill="#000000" stroke="none">
<path d="M2120 3835 c-420 -73 -805 -291 -1078 -610 -430 -503 -561 -1170
-351 -1799 226 -680 839 -1173 1548 -1245 775 -80 1504 318 1851 1009 73 146
145 350 123 350 -4 0 -25 -51 -46 -113 -182 -539 -618 -967 -1168 -1148 -193
-63 -318 -82 -559 -83 -215 -1 -273 5 -455 51 -506 126 -953 490 -1185 968
-290 594 -240 1281 133 1834 105 157 323 372 486 480 255 170 510 264 814 302
124 15 401 7 522 -15 657 -121 1193 -580 1410 -1208 21 -60 41 -108 46 -108
24 0 -54 209 -136 368 -265 512 -756 871 -1323 968 -198 33 -437 33 -632 -1z"/>
<path d="M1922 2217 l-202 -202 203 -203 203 -203 27 29 27 28 -170 169 c-94
93 -170 174 -170 180 0 5 77 87 170 180 l171 171 -29 27 -28 27 -202 -203z"/>
<path d="M2450 2395 l-24 -26 174 -174 175 -175 -175 -175 -174 -174 29 -31
29 -31 198 198 c109 109 198 202 198 208 0 10 -391 405 -401 405 -3 0 -16 -11
-29 -25z"/>
<path d="M3037 2304 c-4 -4 -7 -18 -7 -30 0 -17 7 -23 28 -26 l27 -3 5 -200
c5 -219 11 -243 69 -284 62 -45 202 -46 260 -3 63 47 66 56 71 280 l5 207 25
4 c31 4 42 19 29 43 -9 17 -21 18 -107 16 l-97 -3 -3 -27 c-3 -27 -1 -28 37
-28 l41 0 0 -187 c0 -169 -2 -191 -20 -220 -23 -38 -80 -57 -138 -47 -93 17
-102 41 -102 273 l0 181 41 0 c38 0 40 1 37 28 l-3 27 -95 3 c-53 1 -99 0
-103 -4z"/>
<path d="M3624 2295 c-9 -23 3 -45 26 -45 19 0 20 -6 20 -157 0 -87 -3 -188
-6 -225 -6 -58 -10 -67 -28 -70 -16 -2 -21 -10 -21 -33 l0 -30 88 -3 c93 -3
117 5 117 38 0 21 -19 30 -62 30 -30 0 -30 1 -24 38 3 20 6 109 6 197 0 94 4
154 9 145 5 -8 30 -74 56 -147 48 -136 61 -152 104 -138 14 4 32 43 66 140 26
74 51 132 56 129 5 -3 9 -86 9 -185 l0 -179 -24 0 c-39 0 -56 -11 -56 -35 0
-13 7 -26 16 -29 24 -9 167 -7 182 3 21 13 11 55 -15 59 -12 2 -23 12 -26 25
-3 12 -7 112 -9 222 l-3 199 25 6 c18 4 25 13 25 30 0 24 -3 25 -68 28 -38 2
-74 -1 -80 -7 -7 -5 -34 -73 -62 -150 -27 -78 -52 -141 -55 -141 -3 0 -26 55
-50 123 -67 188 -58 177 -141 177 -53 0 -71 -4 -75 -15z"/>
<path d="M4307 2304 c-4 -4 -7 -18 -7 -31 0 -22 3 -23 75 -23 l75 0 0 -225 0
-224 -77 -3 -78 -3 0 -30 0 -30 184 -3 c190 -3 211 1 211 38 0 24 -20 30 -101
30 l-69 0 2 223 3 222 75 5 c72 5 75 6 75 30 l0 25 -181 3 c-99 1 -183 -1
-187 -4z"/>
<path d="M4894 2295 c-13 -33 4 -45 61 -45 30 0 55 -1 55 -3 0 -4 -137 -384
-151 -419 -6 -15 -20 -28 -31 -30 -30 -4 -45 -32 -29 -52 10 -12 33 -16 100
-16 97 0 114 7 109 41 -2 20 -10 25 -41 27 -43 4 -44 9 -12 85 l16 38 116 -3
116 -3 12 -35 c29 -84 30 -78 -17 -82 -40 -3 -43 -5 -43 -33 l0 -30 99 -3
c102 -3 126 4 126 39 0 12 -11 21 -32 27 -32 8 -34 12 -119 251 -48 134 -93
248 -101 252 -7 5 -62 9 -121 9 -87 0 -109 -3 -113 -15z m235 -166 c22 -62 43
-122 46 -131 7 -16 -2 -18 -90 -18 -73 0 -96 3 -93 13 3 6 24 67 48 135 24 67
44 121 46 119 2 -2 21 -55 43 -118z"/>
</g>
</svg>
